<svg xmlns="http://www.w3.org/2000/svg" xmlns:xlink="http://www.w3.org/1999/xlink" id="body_1" preserveAspectRatio="xMinYMin meet" viewBox="0 0 793 1123"><defs><clipPath id="1"><path id="" clip-rule="evenodd" transform="matrix(1 0 0 1 0 0)" d="M0 842L0 0L0 0L595 0L595 0L595 842L595 842L0 842z" /></clipPath><clipPath id="2"><path id="" clip-rule="evenodd" transform="matrix(1 0 0 1 0 0)" d="M61.2 61.20001L533.52 61.20001L533.52 61.20001L533.52 781.584L533.52 781.584L61.2 781.584L61.2 781.584L61.2 61.20001z" /></clipPath></defs><g transform="matrix(1.333333 0 0 1.333333 0 0)"><g clip-path="url(#1)"><g clip-path="url(#2)"><path id="1" transform="matrix(1 0 0 -1 0 842)" d="M61.2 670.976L533.52 670.976L533.52 669.44L61.2 669.44z" stroke="none" fill="#FFFFFF" fill-rule="nonzero" /><path id="2" transform="matrix(1 0 0 -1 0 842)" d="M61.2 541.184L533.52 541.184L533.52 539.6479L61.2 539.6479z" stroke="none" fill="#FFFFFF" fill-rule="nonzero" /><path id="3" transform="matrix(1 0 0 -1 0 842)" d="M61.2 670.976L62.736 670.976L62.736 539.6479L61.2 539.6479z" stroke="none" fill="#FFFFFF" fill-rule="nonzero" /><path id="4" transform="matrix(1 0 0 -1 0 842)" d="M531.9839 670.976L533.52 670.976L533.52 539.6479L531.9839 539.6479z" stroke="none" fill="#FFFFFF" fill-rule="nonzero" /><path id="5" transform="matrix(1 0 0 -1 0 842)" d="M62.736 650.24L531.9839 650.24L531.9839 649.472L62.736 649.472z" stroke="none" fill="#404040" fill-rule="nonzero" /><path id="6" transform="matrix(1 0 0 -1 0 842)" d="M61.2 531.968L533.52 531.968L533.52 530.432L61.2 530.432z" stroke="none" fill="#FFFFFF" fill-rule="nonzero" /><path id="7" transform="matrix(1 0 0 -1 0 842)" d="M61.2 272.384L533.52 272.384L533.52 270.848L61.2 270.848z" stroke="none" fill="#FFFFFF" fill-rule="nonzero" /><path id="8" transform="matrix(1 0 0 -1 0 842)" d="M61.2 531.968L62.736 531.968L62.736 270.848L61.2 270.848z" stroke="none" fill="#FFFFFF" fill-rule="nonzero" /><path id="9" transform="matrix(1 0 0 -1 0 842)" d="M531.9839 531.968L533.52 531.968L533.52 270.848L531.9839 270.848z" stroke="none" fill="#FFFFFF" fill-rule="nonzero" /><path id="10" transform="matrix(1 0 0 -1 0 842)" d="M62.736 511.232L531.9839 511.232L531.9839 510.464L62.736 510.464z" stroke="none" fill="#404040" fill-rule="nonzero" /><path id="11" transform="matrix(1 0 0 -1 0 842)" d="M61.2 263.168L533.52 263.168L533.52 261.632L61.2 261.632z" stroke="none" fill="#FFFFFF" fill-rule="nonzero" /><path id="12" transform="matrix(1 0 0 -1 0 842)" d="M61.2 152.576L533.52 152.576L533.52 151.04L61.2 151.04z" stroke="none" fill="#FFFFFF" fill-rule="nonzero" /><path id="13" transform="matrix(1 0 0 -1 0 842)" d="M61.2 263.168L62.736 263.168L62.736 151.04L61.2 151.04z" stroke="none" fill="#FFFFFF" fill-rule="nonzero" /><path id="14" transform="matrix(1 0 0 -1 0 842)" d="M531.9839 263.168L533.52 263.168L533.52 151.04L531.9839 151.04z" stroke="none" fill="#FFFFFF" fill-rule="nonzero" /><path id="15" transform="matrix(1 0 0 -1 0 842)" d="M62.736 242.432L531.9839 242.432L531.9839 241.664L62.736 241.664z" stroke="none" fill="#404040" fill-rule="nonzero" /><path id="16" transform="matrix(1 0 0 -1 0 842)" d="M61.2 143.36L533.52 143.36L533.52 141.824L61.2 141.824z" stroke="none" fill="#FFFFFF" fill-rule="nonzero" /><path id="18" transform="matrix(1 0 0 -1 0 842)" d="M61.2 143.36L62.736 143.36L62.736 -90.88L61.2 -90.88z" stroke="none" fill="#FFFFFF" fill-rule="nonzero" /><path id="19" transform="matrix(1 0 0 -1 0 842)" d="M531.9839 143.36L533.52 143.36L533.52 -90.88L531.9839 -90.88z" stroke="none" fill="#FFFFFF" fill-rule="nonzero" /><path id="20" transform="matrix(1 0 0 -1 0 842)" d="M62.736 122.624L531.9839 122.624L531.9839 121.856L62.736 121.856z" stroke="none" fill="#404040" fill-rule="nonzero" /><path id="197" transform="matrix(1 0 0 -1 0 842)" d="M69.648 635.6479C 69.648 634.7997 68.96031 634.112 68.112 634.112C 67.26369 634.112 66.576 634.7997 66.576 635.6479C 66.576 636.4963 67.26369 637.184 68.112 637.184C 68.96031 637.184 69.648 636.4963 69.648 635.6479z" stroke="#000000" stroke-width="0.7679999" fill="#000000" fill-rule="evenodd" /><path id="257" transform="matrix(1 0 0 -1 0 842)" d="M69.648 614.912C 69.648 614.0637 68.96031 613.376 68.112 613.376C 67.26369 613.376 66.576 614.0637 66.576 614.912C 66.576 615.7603 67.26369 616.448 68.112 616.448C 68.96031 616.448 69.648 615.7603 69.648 614.912z" stroke="#000000" stroke-width="0.7679999" fill="#000000" fill-rule="evenodd" /><path id="304" transform="matrix(1 0 0 -1 0 842)" d="M69.648 594.176C 69.648 593.3277 68.96031 592.64 68.112 592.64C 67.26369 592.64 66.576 593.3277 66.576 594.176C 66.576 595.0243 67.26369 595.712 68.112 595.712C 68.96031 595.712 69.648 595.0243 69.648 594.176z" stroke="#000000" stroke-width="0.7679999" fill="#000000" fill-rule="evenodd" /><path id="348" transform="matrix(1 0 0 -1 0 842)" d="M69.648 573.44C 69.648 572.5917 68.96031 571.904 68.112 571.904C 67.26369 571.904 66.576 572.5917 66.576 573.44C 66.576 574.2883 67.26369 574.976 68.112 574.976C 68.96031 574.976 69.648 574.2883 69.648 573.44z" stroke="#000000" stroke-width="0.7679999" fill="#000000" fill-rule="evenodd" /><path id="390" transform="matrix(1 0 0 -1 0 842)" d="M69.648 552.704C 69.648 551.8557 68.96031 551.168 68.112 551.168C 67.26369 551.168 66.576 551.8557 66.576 552.704C 66.576 553.5523 67.26369 554.24 68.112 554.24C 68.96031 554.24 69.648 553.5523 69.648 552.704z" stroke="#000000" stroke-width="0.7679999" fill="#000000" fill-rule="evenodd" /><path id="467" transform="matrix(1 0 0 -1 0 842)" d="M69.648 474.368C 69.648 473.5197 68.96031 472.832 68.112 472.832C 67.26369 472.832 66.576 473.5197 66.576 474.368C 66.576 475.2163 67.26369 475.904 68.112 475.904C 68.96031 475.904 69.648 475.2163 69.648 474.368z" stroke="#000000" stroke-width="0.7679999" fill="#000000" fill-rule="evenodd" /><path id="525" transform="matrix(1 0 0 -1 0 842)" d="M69.648 437.504C 69.648 436.6557 68.96031 435.968 68.112 435.968C 67.26369 435.968 66.576 436.6557 66.576 437.504C 66.576 438.3523 67.26369 439.04 68.112 439.04C 68.96031 439.04 69.648 438.3523 69.648 437.504z" stroke="#000000" stroke-width="0.7679999" fill="#000000" fill-rule="evenodd" /><path id="574" transform="matrix(1 0 0 -1 0 842)" d="M69.648 416.768C 69.648 415.9197 68.96031 415.232 68.112 415.232C 67.26369 415.232 66.576 415.9197 66.576 416.768C 66.576 417.6163 67.26369 418.304 68.112 418.304C 68.96031 418.304 69.648 417.6163 69.648 416.768z" stroke="#000000" stroke-width="0.7679999" fill="#000000" fill-rule="evenodd" /><path id="681" transform="matrix(1 0 0 -1 0 842)" d="M69.648 357.632C 69.648 356.7837 68.96031 356.096 68.112 356.096C 67.26369 356.096 66.576 356.7837 66.576 357.632C 66.576 358.4803 67.26369 359.168 68.112 359.168C 68.96031 359.168 69.648 358.4803 69.648 357.632z" stroke="#000000" stroke-width="0.7679999" fill="#000000" fill-rule="evenodd" /><path id="739" transform="matrix(1 0 0 -1 0 842)" d="M69.648 320.768C 69.648 319.9197 68.96031 319.232 68.112 319.232C 67.26369 319.232 66.576 319.9197 66.576 320.768C 66.576 321.6163 67.26369 322.304 68.112 322.304C 68.96031 322.304 69.648 321.6163 69.648 320.768z" stroke="#000000" stroke-width="0.7679999" fill="#000000" fill-rule="evenodd" /><path id="788" transform="matrix(1 0 0 -1 0 842)" d="M69.648 300.032C 69.648 299.1837 68.96031 298.496 68.112 298.496C 67.26369 298.496 66.576 299.1837 66.576 300.032C 66.576 300.8803 67.26369 301.568 68.112 301.568C 68.96031 301.568 69.648 300.8803 69.648 300.032z" stroke="#000000" stroke-width="0.7679999" fill="#000000" fill-rule="evenodd" /><path id="919" transform="matrix(1 0 0 -1 0 842)" d="M69.648 184.832C 69.648 183.9837 68.96031 183.296 68.112 183.296C 67.26369 183.296 66.576 183.9837 66.576 184.832C 66.576 185.6803 67.26369 186.368 68.112 186.368C 68.96031 186.368 69.648 185.6803 69.648 184.832z" stroke="#000000" stroke-width="0.7679999" fill="#000000" fill-rule="evenodd" /><path id="957" transform="matrix(1 0 0 -1 0 842)" d="M69.648 164.096C 69.648 163.2477 68.96031 162.56 68.112 162.56C 67.26369 162.56 66.576 163.2477 66.576 164.096C 66.576 164.9443 67.26369 165.632 68.112 165.632C 68.96031 165.632 69.648 164.9443 69.648 164.096z" stroke="#000000" stroke-width="0.7679999" fill="#000000" fill-rule="evenodd" /><path id="1030" transform="matrix(1 0 0 -1 0 842)" d="M69.648 69.63196C 69.648 68.78369 68.96031 68.09601 68.112 68.09601C 67.26369 68.09601 66.576 68.78369 66.576 69.63196C 66.576 70.48029 67.26369 71.16797 68.112 71.16797C 68.96031 71.16797 69.648 70.48029 69.648 69.63196z" stroke="#000000" stroke-width="0.7679999" fill="#000000" fill-rule="evenodd" /></g></g></g></svg>