<svg xmlns="http://www.w3.org/2000/svg" xmlns:xlink="http://www.w3.org/1999/xlink" id="body_2" preserveAspectRatio="xMinYMin meet" viewBox="0 0 793 1123"><defs><clipPath id="1"><path id="" clip-rule="evenodd" transform="matrix(1 0 0 1 0 0)" d="M0 842L0 0L0 0L595 0L595 0L595 842L595 842L0 842z" /></clipPath><clipPath id="2"><path id="" clip-rule="evenodd" transform="matrix(1 0 0 1 0 0)" d="M61.2 61.20001L533.52 61.20001L533.52 61.20001L533.52 227.856L533.52 227.856L61.2 227.856L61.2 227.856L61.2 61.20001z" /></clipPath></defs><g transform="matrix(1.333333 0 0 1.333333 0 0)"><g clip-path="url(#1)"><g clip-path="url(#2)"><path id="2" transform="matrix(1 0 0 -1 0 842)" d="M61.2 762.3679L533.52 762.3679L533.52 760.8318L61.2 760.8318z" stroke="none" fill="#FFFFFF" fill-rule="nonzero" /><path id="3" transform="matrix(1 0 0 -1 0 842)" d="M61.2 826.8799L62.736 826.8799L62.736 760.8318L61.2 760.8318z" stroke="none" fill="#FFFFFF" fill-rule="nonzero" /><path id="4" transform="matrix(1 0 0 -1 0 842)" d="M531.9839 826.8799L533.52 826.8799L533.52 760.8318L531.9839 760.8318z" stroke="none" fill="#FFFFFF" fill-rule="nonzero" /><path id="5" transform="matrix(1 0 0 -1 0 842)" d="M61.2 753.1519L533.52 753.1519L533.52 751.6159L61.2 751.6159z" stroke="none" fill="#FFFFFF" fill-rule="nonzero" /><path id="6" transform="matrix(1 0 0 -1 0 842)" d="M61.2 753.1519L62.736 753.1519L62.736 614.1439L61.2 614.1439z" stroke="none" fill="#FFFFFF" fill-rule="nonzero" /><path id="7" transform="matrix(1 0 0 -1 0 842)" d="M531.9839 753.1519L533.52 753.1519L533.52 614.1439L531.9839 614.1439z" stroke="none" fill="#FFFFFF" fill-rule="nonzero" /><path id="8" transform="matrix(1 0 0 -1 0 842)" d="M62.736 732.4159L531.9839 732.4159L531.9839 731.6479L62.736 731.6479z" stroke="none" fill="#404040" fill-rule="nonzero" /><path id="34" transform="matrix(1 0 0 -1 0 842)" d="M69.648 717.8239C 69.648 716.9756 68.96031 716.2879 68.112 716.2879C 67.26369 716.2879 66.576 716.9756 66.576 717.8239C 66.576 718.6722 67.26369 719.3599 68.112 719.3599C 68.96031 719.3599 69.648 718.6722 69.648 717.8239z" stroke="#000000" stroke-width="0.7679999" fill="#000000" fill-rule="evenodd" /></g></g></g></svg>