<svg xmlns="http://www.w3.org/2000/svg" xmlns:xlink="http://www.w3.org/1999/xlink" id="body_1" preserveAspectRatio="xMinYMin meet" viewBox="0 0 793 1123"><defs><clipPath id="1"><path id="" clip-rule="evenodd" transform="matrix(1 0 0 1 0 0)" d="M0 842L0 0L0 0L595 0L595 0L595 842L595 842L0 842z" /></clipPath><clipPath id="2"><path id="" clip-rule="evenodd" transform="matrix(1 0 0 1 0 0)" d="M61.2 61.20001L533.52 61.20001L533.52 61.20001L533.52 708.624L533.52 708.624L61.2 708.624L61.2 708.624L61.2 61.20001z" /></clipPath></defs><g transform="matrix(1.333333 0 0 1.333333 0 0)"><g clip-path="url(#1)"><g clip-path="url(#2)"><path id="1" transform="matrix(1 0 0 -1 0 842)" d="M61.2 703.232L533.52 703.232L533.52 701.696L61.2 701.696z" stroke="none" fill="#FFFFFF" fill-rule="nonzero" /><path id="2" transform="matrix(1 0 0 -1 0 842)" d="M61.2 402.176L533.52 402.176L533.52 400.64L61.2 400.64z" stroke="none" fill="#FFFFFF" fill-rule="nonzero" /><path id="3" transform="matrix(1 0 0 -1 0 842)" d="M61.2 703.232L62.736 703.232L62.736 400.64L61.2 400.64z" stroke="none" fill="#FFFFFF" fill-rule="nonzero" /><path id="4" transform="matrix(1 0 0 -1 0 842)" d="M531.9839 703.232L533.52 703.232L533.52 400.64L531.9839 400.64z" stroke="none" fill="#FFFFFF" fill-rule="nonzero" /><path id="5" transform="matrix(1 0 0 -1 0 842)" d="M62.736 682.496L531.9839 682.496L531.9839 681.728L62.736 681.728z" stroke="none" fill="#404040" fill-rule="nonzero" /><path id="6" transform="matrix(1 0 0 -1 0 842)" d="M61.2 392.96L533.52 392.96L533.52 391.424L61.2 391.424z" stroke="none" fill="#FFFFFF" fill-rule="nonzero" /><path id="7" transform="matrix(1 0 0 -1 0 842)" d="M61.2 263.168L533.52 263.168L533.52 261.632L61.2 261.632z" stroke="none" fill="#FFFFFF" fill-rule="nonzero" /><path id="8" transform="matrix(1 0 0 -1 0 842)" d="M61.2 392.96L62.736 392.96L62.736 261.632L61.2 261.632z" stroke="none" fill="#FFFFFF" fill-rule="nonzero" /><path id="9" transform="matrix(1 0 0 -1 0 842)" d="M531.9839 392.96L533.52 392.96L533.52 261.632L531.9839 261.632z" stroke="none" fill="#FFFFFF" fill-rule="nonzero" /><path id="10" transform="matrix(1 0 0 -1 0 842)" d="M62.736 372.224L531.9839 372.224L531.9839 371.456L62.736 371.456z" stroke="none" fill="#404040" fill-rule="nonzero" /><path id="11" transform="matrix(1 0 0 -1 0 842)" d="M61.2 253.952L533.52 253.952L533.52 252.416L61.2 252.416z" stroke="none" fill="#FFFFFF" fill-rule="nonzero" /><path id="12" transform="matrix(1 0 0 -1 0 842)" d="M61.2 184.832L533.52 184.832L533.52 183.296L61.2 183.296z" stroke="none" fill="#FFFFFF" fill-rule="nonzero" /><path id="13" transform="matrix(1 0 0 -1 0 842)" d="M61.2 253.952L62.736 253.952L62.736 183.296L61.2 183.296z" stroke="none" fill="#FFFFFF" fill-rule="nonzero" /><path id="14" transform="matrix(1 0 0 -1 0 842)" d="M531.9839 253.952L533.52 253.952L533.52 183.296L531.9839 183.296z" stroke="none" fill="#FFFFFF" fill-rule="nonzero" /><path id="15" transform="matrix(1 0 0 -1 0 842)" d="M62.736 233.216L531.9839 233.216L531.9839 232.448L62.736 232.448z" stroke="none" fill="#404040" fill-rule="nonzero" /><path id="16" transform="matrix(1 0 0 -1 0 842)" d="M61.2 175.616L533.52 175.616L533.52 174.08L61.2 174.08z" stroke="none" fill="#FFFFFF" fill-rule="nonzero" /><path id="17" transform="matrix(1 0 0 -1 0 842)" d="M61.2 175.616L62.736 175.616L62.736 133.376L61.2 133.376z" stroke="none" fill="#FFFFFF" fill-rule="nonzero" /><path id="18" transform="matrix(1 0 0 -1 0 842)" d="M531.9839 175.616L533.52 175.616L533.52 133.376L531.9839 133.376z" stroke="none" fill="#FFFFFF" fill-rule="nonzero" /><path id="19" transform="matrix(1 0 0 -1 0 842)" d="M62.736 154.88L531.9839 154.88L531.9839 154.112L62.736 154.112z" stroke="none" fill="#404040" fill-rule="nonzero" /><path id="106" transform="matrix(1 0 0 -1 0 842)" d="M69.648 645.632C 69.648 644.7837 68.96031 644.096 68.112 644.096C 67.26369 644.096 66.576 644.7837 66.576 645.632C 66.576 646.4803 67.26369 647.168 68.112 647.168C 68.96031 647.168 69.648 646.4803 69.648 645.632z" stroke="#000000" stroke-width="0.7679999" fill="#000000" fill-rule="evenodd" /><path id="149" transform="matrix(1 0 0 -1 0 842)" d="M69.648 624.896C 69.648 624.0477 68.96031 623.36 68.112 623.36C 67.26369 623.36 66.576 624.0477 66.576 624.896C 66.576 625.7443 67.26369 626.432 68.112 626.432C 68.96031 626.432 69.648 625.7443 69.648 624.896z" stroke="#000000" stroke-width="0.7679999" fill="#000000" fill-rule="evenodd" /><path id="204" transform="matrix(1 0 0 -1 0 842)" d="M69.648 588.032C 69.648 587.1837 68.96031 586.496 68.112 586.496C 67.26369 586.496 66.576 587.1837 66.576 588.032C 66.576 588.8803 67.26369 589.568 68.112 589.568C 68.96031 589.568 69.648 588.8803 69.648 588.032z" stroke="#000000" stroke-width="0.7679999" fill="#000000" fill-rule="evenodd" /><path id="282" transform="matrix(1 0 0 -1 0 842)" d="M69.648 551.168C 69.648 550.3197 68.96031 549.632 68.112 549.632C 67.26369 549.632 66.576 550.3197 66.576 551.168C 66.576 552.0163 67.26369 552.704 68.112 552.704C 68.96031 552.704 69.648 552.0163 69.648 551.168z" stroke="#000000" stroke-width="0.7679999" fill="#000000" fill-rule="evenodd" /><path id="310" transform="matrix(1 0 0 -1 0 842)" d="M69.648 530.432C 69.648 529.5837 68.96031 528.896 68.112 528.896C 67.26369 528.896 66.576 529.5837 66.576 530.432C 66.576 531.2803 67.26369 531.968 68.112 531.968C 68.96031 531.968 69.648 531.2803 69.648 530.432z" stroke="#000000" stroke-width="0.7679999" fill="#000000" fill-rule="evenodd" /><path id="365" transform="matrix(1 0 0 -1 0 842)" d="M69.648 487.424C 69.648 486.5757 68.96031 485.888 68.112 485.888C 67.26369 485.888 66.576 486.5757 66.576 487.424C 66.576 488.2723 67.26369 488.96 68.112 488.96C 68.96031 488.96 69.648 488.2723 69.648 487.424z" stroke="#000000" stroke-width="0.7679999" fill="#000000" fill-rule="evenodd" /><path id="423" transform="matrix(1 0 0 -1 0 842)" d="M69.648 450.56C 69.648 449.7117 68.96031 449.024 68.112 449.024C 67.26369 449.024 66.576 449.7117 66.576 450.56C 66.576 451.4083 67.26369 452.096 68.112 452.096C 68.96031 452.096 69.648 451.4083 69.648 450.56z" stroke="#000000" stroke-width="0.7679999" fill="#000000" fill-rule="evenodd" /><path id="472" transform="matrix(1 0 0 -1 0 842)" d="M69.648 429.824C 69.648 428.9757 68.96031 428.288 68.112 428.288C 67.26369 428.288 66.576 428.9757 66.576 429.824C 66.576 430.6723 67.26369 431.36 68.112 431.36C 68.96031 431.36 69.648 430.6723 69.648 429.824z" stroke="#000000" stroke-width="0.7679999" fill="#000000" fill-rule="evenodd" /><path id="567" transform="matrix(1 0 0 -1 0 842)" d="M69.648 357.632C 69.648 356.7837 68.96031 356.096 68.112 356.096C 67.26369 356.096 66.576 356.7837 66.576 357.632C 66.576 358.4803 67.26369 359.168 68.112 359.168C 68.96031 359.168 69.648 358.4803 69.648 357.632z" stroke="#000000" stroke-width="0.7679999" fill="#000000" fill-rule="evenodd" /><path id="627" transform="matrix(1 0 0 -1 0 842)" d="M69.648 336.896C 69.648 336.0477 68.96031 335.36 68.112 335.36C 67.26369 335.36 66.576 336.0477 66.576 336.896C 66.576 337.7443 67.26369 338.432 68.112 338.432C 68.96031 338.432 69.648 337.7443 69.648 336.896z" stroke="#000000" stroke-width="0.7679999" fill="#000000" fill-rule="evenodd" /><path id="674" transform="matrix(1 0 0 -1 0 842)" d="M69.648 316.16C 69.648 315.3117 68.96031 314.624 68.112 314.624C 67.26369 314.624 66.576 315.3117 66.576 316.16C 66.576 317.0083 67.26369 317.696 68.112 317.696C 68.96031 317.696 69.648 317.0083 69.648 316.16z" stroke="#000000" stroke-width="0.7679999" fill="#000000" fill-rule="evenodd" /><path id="718" transform="matrix(1 0 0 -1 0 842)" d="M69.648 295.424C 69.648 294.5757 68.96031 293.888 68.112 293.888C 67.26369 293.888 66.576 294.5757 66.576 295.424C 66.576 296.2723 67.26369 296.96 68.112 296.96C 68.96031 296.96 69.648 296.2723 69.648 295.424z" stroke="#000000" stroke-width="0.7679999" fill="#000000" fill-rule="evenodd" /><path id="760" transform="matrix(1 0 0 -1 0 842)" d="M69.648 274.688C 69.648 273.8397 68.96031 273.152 68.112 273.152C 67.26369 273.152 66.576 273.8397 66.576 274.688C 66.576 275.5363 67.26369 276.224 68.112 276.224C 68.96031 276.224 69.648 275.5363 69.648 274.688z" stroke="#000000" stroke-width="0.7679999" fill="#000000" fill-rule="evenodd" /><path id="824" transform="matrix(1 0 0 -1 0 842)" d="M69.648 196.352C 69.648 195.5037 68.96031 194.816 68.112 194.816C 67.26369 194.816 66.576 195.5037 66.576 196.352C 66.576 197.2003 67.26369 197.888 68.112 197.888C 68.96031 197.888 69.648 197.2003 69.648 196.352z" stroke="#000000" stroke-width="0.7679999" fill="#000000" fill-rule="evenodd" /><path id="844" transform="matrix(1 0 0 -1 0 842)" d="M69.648 140.288C 69.648 139.4397 68.96031 138.752 68.112 138.752C 67.26369 138.752 66.576 139.4397 66.576 140.288C 66.576 141.1363 67.26369 141.824 68.112 141.824C 68.96031 141.824 69.648 141.1363 69.648 140.288z" stroke="#000000" stroke-width="0.7679999" fill="#000000" fill-rule="evenodd" /></g></g></g></svg>