<svg xmlns="http://www.w3.org/2000/svg" xmlns:xlink="http://www.w3.org/1999/xlink" id="body_2" preserveAspectRatio="xMinYMin meet" viewBox="0 0 793 1123"><defs><clipPath id="1"><path id="" clip-rule="evenodd" transform="matrix(1 0 0 1 0 0)" d="M0 842L0 0L0 0L595 0L595 0L595 842L595 842L0 842z" /></clipPath><clipPath id="2"><path id="" clip-rule="evenodd" transform="matrix(1 0 0 1 0 0)" d="M61.2 61.20001L533.52 61.20001L533.52 61.20001L533.52 599.568L533.52 599.568L61.2 599.568L61.2 599.568L61.2 61.20001z" /></clipPath></defs><g transform="matrix(1.333333 0 0 1.333333 0 0)"><g clip-path="url(#1)"><g clip-path="url(#2)"><path id="2" transform="matrix(1 0 0 -1 0 842)" d="M61.2 631.04L533.52 631.04L533.52 629.504L61.2 629.504z" stroke="none" fill="#FFFFFF" fill-rule="nonzero" /><path id="3" transform="matrix(1 0 0 -1 0 842)" d="M61.2 863.744L62.736 863.744L62.736 629.504L61.2 629.504z" stroke="none" fill="#FFFFFF" fill-rule="nonzero" /><path id="4" transform="matrix(1 0 0 -1 0 842)" d="M531.9839 863.744L533.52 863.744L533.52 629.504L531.9839 629.504z" stroke="none" fill="#FFFFFF" fill-rule="nonzero" /><path id="5" transform="matrix(1 0 0 -1 0 842)" d="M61.2 621.824L533.52 621.824L533.52 620.288L61.2 620.288z" stroke="none" fill="#FFFFFF" fill-rule="nonzero" /><path id="6" transform="matrix(1 0 0 -1 0 842)" d="M61.2 517.376L533.52 517.376L533.52 515.84L61.2 515.84z" stroke="none" fill="#FFFFFF" fill-rule="nonzero" /><path id="7" transform="matrix(1 0 0 -1 0 842)" d="M61.2 621.824L62.736 621.824L62.736 515.84L61.2 515.84z" stroke="none" fill="#FFFFFF" fill-rule="nonzero" /><path id="8" transform="matrix(1 0 0 -1 0 842)" d="M531.9839 621.824L533.52 621.824L533.52 515.84L531.9839 515.84z" stroke="none" fill="#FFFFFF" fill-rule="nonzero" /><path id="9" transform="matrix(1 0 0 -1 0 842)" d="M62.736 601.088L531.9839 601.088L531.9839 600.3199L62.736 600.3199z" stroke="none" fill="#404040" fill-rule="nonzero" /><path id="10" transform="matrix(1 0 0 -1 0 842)" d="M61.2 508.16L533.52 508.16L533.52 506.624L61.2 506.624z" stroke="none" fill="#FFFFFF" fill-rule="nonzero" /><path id="11" transform="matrix(1 0 0 -1 0 842)" d="M61.2 443.6479L533.52 443.6479L533.52 442.1119L61.2 442.1119z" stroke="none" fill="#FFFFFF" fill-rule="nonzero" /><path id="12" transform="matrix(1 0 0 -1 0 842)" d="M61.2 508.16L62.736 508.16L62.736 442.1119L61.2 442.1119z" stroke="none" fill="#FFFFFF" fill-rule="nonzero" /><path id="13" transform="matrix(1 0 0 -1 0 842)" d="M531.9839 508.16L533.52 508.16L533.52 442.1119L531.9839 442.1119z" stroke="none" fill="#FFFFFF" fill-rule="nonzero" /><path id="14" transform="matrix(1 0 0 -1 0 842)" d="M62.736 487.424L531.9839 487.424L531.9839 486.6559L62.736 486.6559z" stroke="none" fill="#404040" fill-rule="nonzero" /><path id="15" transform="matrix(1 0 0 -1 0 842)" d="M61.2 434.432L533.52 434.432L533.52 432.896L61.2 432.896z" stroke="none" fill="#FFFFFF" fill-rule="nonzero" /><path id="16" transform="matrix(1 0 0 -1 0 842)" d="M61.2 434.432L62.736 434.432L62.736 242.432L61.2 242.432z" stroke="none" fill="#FFFFFF" fill-rule="nonzero" /><path id="17" transform="matrix(1 0 0 -1 0 842)" d="M531.9839 434.432L533.52 434.432L533.52 242.432L531.9839 242.432z" stroke="none" fill="#FFFFFF" fill-rule="nonzero" /><path id="18" transform="matrix(1 0 0 -1 0 842)" d="M62.736 413.6959L531.9839 413.6959L531.9839 412.928L62.736 412.928z" stroke="none" fill="#404040" fill-rule="nonzero" /><path id="68" transform="matrix(1 0 0 -1 0 842)" d="M69.648 753.152C 69.648 752.3036 68.96031 751.616 68.112 751.616C 67.26369 751.616 66.576 752.3036 66.576 753.152C 66.576 754.0002 67.26369 754.6879 68.112 754.6879C 68.96031 754.6879 69.648 754.0002 69.648 753.152z" stroke="#000000" stroke-width="0.7679999" fill="#000000" fill-rule="evenodd" /><path id="134" transform="matrix(1 0 0 -1 0 842)" d="M69.648 716.288C 69.648 715.4396 68.96031 714.752 68.112 714.752C 67.26369 714.752 66.576 715.4396 66.576 716.288C 66.576 717.1362 67.26369 717.824 68.112 717.824C 68.96031 717.824 69.648 717.1362 69.648 716.288z" stroke="#000000" stroke-width="0.7679999" fill="#000000" fill-rule="evenodd" /><path id="180" transform="matrix(1 0 0 -1 0 842)" d="M69.648 695.5519C 69.648 694.7036 68.96031 694.0159 68.112 694.0159C 67.26369 694.0159 66.576 694.7036 66.576 695.5519C 66.576 696.4003 67.26369 697.088 68.112 697.088C 68.96031 697.088 69.648 696.4003 69.648 695.5519z" stroke="#000000" stroke-width="0.7679999" fill="#000000" fill-rule="evenodd" /><path id="305" transform="matrix(1 0 0 -1 0 842)" d="M69.648 642.5599C 69.648 641.7116 68.96031 641.0239 68.112 641.0239C 67.26369 641.0239 66.576 641.7116 66.576 642.5599C 66.576 643.4083 67.26369 644.0959 68.112 644.0959C 68.96031 644.0959 69.648 643.4083 69.648 642.5599z" stroke="#000000" stroke-width="0.7679999" fill="#000000" fill-rule="evenodd" /><path id="318" transform="matrix(1 0 0 -1 0 842)" d="M69.648 586.496C 69.648 585.6476 68.96031 584.96 68.112 584.96C 67.26369 584.96 66.576 585.6476 66.576 586.496C 66.576 587.3443 67.26369 588.032 68.112 588.032C 68.96031 588.032 69.648 587.3443 69.648 586.496z" stroke="#000000" stroke-width="0.7679999" fill="#000000" fill-rule="evenodd" /><path id="394" transform="matrix(1 0 0 -1 0 842)" d="M69.648 549.632C 69.648 548.7836 68.96031 548.0959 68.112 548.0959C 67.26369 548.0959 66.576 548.7836 66.576 549.632C 66.576 550.4803 67.26369 551.168 68.112 551.168C 68.96031 551.168 69.648 550.4803 69.648 549.632z" stroke="#000000" stroke-width="0.7679999" fill="#000000" fill-rule="evenodd" /><path id="446" transform="matrix(1 0 0 -1 0 842)" d="M69.648 528.8959C 69.648 528.0476 68.96031 527.3599 68.112 527.3599C 67.26369 527.3599 66.576 528.0476 66.576 528.8959C 66.576 529.7443 67.26369 530.4319 68.112 530.4319C 68.96031 530.4319 69.648 529.7443 69.648 528.8959z" stroke="#000000" stroke-width="0.7679999" fill="#000000" fill-rule="evenodd" /><path id="520" transform="matrix(1 0 0 -1 0 842)" d="M69.648 399.104C 69.648 398.2556 68.96031 397.568 68.112 397.568C 67.26369 397.568 66.576 398.2556 66.576 399.104C 66.576 399.9523 67.26369 400.6399 68.112 400.6399C 68.96031 400.6399 69.648 399.9523 69.648 399.104z" stroke="#000000" stroke-width="0.7679999" fill="#000000" fill-rule="evenodd" /><path id="763" transform="matrix(1 0 0 -1 0 842)" d="M69.648 313.856C 69.648 313.0076 68.96031 312.3199 68.112 312.3199C 67.26369 312.3199 66.576 313.0076 66.576 313.856C 66.576 314.7043 67.26369 315.392 68.112 315.392C 68.96031 315.392 69.648 314.7043 69.648 313.856z" stroke="#000000" stroke-width="0.7679999" fill="#000000" fill-rule="evenodd" /></g></g></g></svg>