<svg xmlns="http://www.w3.org/2000/svg" xmlns:xlink="http://www.w3.org/1999/xlink" id="body_1" preserveAspectRatio="xMinYMin meet" viewBox="0 0 793 1123"><defs><clipPath id="1"><path id="" clip-rule="evenodd" transform="matrix(1 0 0 1 0 0)" d="M0 842L0 0L0 0L595 0L595 0L595 842L595 842L0 842z" /></clipPath><clipPath id="2"><path id="" clip-rule="evenodd" transform="matrix(1 0 0 1 0 0)" d="M61.2 61.20001L533.52 61.20001L533.52 61.20001L533.52 779.28L533.52 779.28L61.2 779.28L61.2 779.28L61.2 61.20001z" /></clipPath></defs><g transform="matrix(1.333333 0 0 1.333333 0 0)"><g clip-path="url(#1)"><g clip-path="url(#2)"><path id="1" transform="matrix(1 0 0 -1 0 842)" d="M61.2 687.104L533.52 687.104L533.52 685.568L61.2 685.568z" stroke="none" fill="#FFFFFF" fill-rule="nonzero" /><path id="2" transform="matrix(1 0 0 -1 0 842)" d="M61.2 467.456L533.52 467.456L533.52 465.92L61.2 465.92z" stroke="none" fill="#FFFFFF" fill-rule="nonzero" /><path id="3" transform="matrix(1 0 0 -1 0 842)" d="M61.2 687.104L62.736 687.104L62.736 465.92L61.2 465.92z" stroke="none" fill="#FFFFFF" fill-rule="nonzero" /><path id="4" transform="matrix(1 0 0 -1 0 842)" d="M531.9839 687.104L533.52 687.104L533.52 465.92L531.9839 465.92z" stroke="none" fill="#FFFFFF" fill-rule="nonzero" /><path id="5" transform="matrix(1 0 0 -1 0 842)" d="M62.736 666.368L531.9839 666.368L531.9839 665.6L62.736 665.6z" stroke="none" fill="#404040" fill-rule="nonzero" /><path id="6" transform="matrix(1 0 0 -1 0 842)" d="M61.2 458.24L533.52 458.24L533.52 456.704L61.2 456.704z" stroke="none" fill="#FFFFFF" fill-rule="nonzero" /><path id="7" transform="matrix(1 0 0 -1 0 842)" d="M61.2 191.744L533.52 191.744L533.52 190.208L61.2 190.208z" stroke="none" fill="#FFFFFF" fill-rule="nonzero" /><path id="8" transform="matrix(1 0 0 -1 0 842)" d="M61.2 458.24L62.736 458.24L62.736 190.208L61.2 190.208z" stroke="none" fill="#FFFFFF" fill-rule="nonzero" /><path id="9" transform="matrix(1 0 0 -1 0 842)" d="M531.9839 458.24L533.52 458.24L533.52 190.208L531.9839 190.208z" stroke="none" fill="#FFFFFF" fill-rule="nonzero" /><path id="10" transform="matrix(1 0 0 -1 0 842)" d="M62.736 437.504L531.9839 437.504L531.9839 436.736L62.736 436.736z" stroke="none" fill="#404040" fill-rule="nonzero" /><path id="11" transform="matrix(1 0 0 -1 0 842)" d="M61.2 182.528L533.52 182.528L533.52 180.992L61.2 180.992z" stroke="none" fill="#FFFFFF" fill-rule="nonzero" /><path id="12" transform="matrix(1 0 0 -1 0 842)" d="M61.2 118.016L533.52 118.016L533.52 116.48L61.2 116.48z" stroke="none" fill="#FFFFFF" fill-rule="nonzero" /><path id="13" transform="matrix(1 0 0 -1 0 842)" d="M61.2 182.528L62.736 182.528L62.736 116.48L61.2 116.48z" stroke="none" fill="#FFFFFF" fill-rule="nonzero" /><path id="14" transform="matrix(1 0 0 -1 0 842)" d="M531.9839 182.528L533.52 182.528L533.52 116.48L531.9839 116.48z" stroke="none" fill="#FFFFFF" fill-rule="nonzero" /><path id="15" transform="matrix(1 0 0 -1 0 842)" d="M62.736 161.792L531.9839 161.792L531.9839 161.024L62.736 161.024z" stroke="none" fill="#404040" fill-rule="nonzero" /><path id="16" transform="matrix(1 0 0 -1 0 842)" d="M61.2 108.8L533.52 108.8L533.52 107.264L61.2 107.264z" stroke="none" fill="#FFFFFF" fill-rule="nonzero" /><path id="18" transform="matrix(1 0 0 -1 0 842)" d="M61.2 108.8L62.736 108.8L62.736 42.75195L61.2 42.75195z" stroke="none" fill="#FFFFFF" fill-rule="nonzero" /><path id="19" transform="matrix(1 0 0 -1 0 842)" d="M531.9839 108.8L533.52 108.8L533.52 42.75195L531.9839 42.75195z" stroke="none" fill="#FFFFFF" fill-rule="nonzero" /><path id="20" transform="matrix(1 0 0 -1 0 842)" d="M62.736 88.06396L531.9839 88.06396L531.9839 87.29596L62.736 87.29596z" stroke="none" fill="#404040" fill-rule="nonzero" /></g></g></g></svg>